<?xml version="1.0" encoding="utf-8"?>
<!-- Generator: Adobe Illustrator 19.1.0, SVG Export Plug-In . SVG Version: 6.00 Build 0)  -->
<svg version="1.1" id="Layer_1" xmlns="http://www.w3.org/2000/svg" xmlns:xlink="http://www.w3.org/1999/xlink" x="0px" y="0px"
	 viewBox="0 0 300 300" style="enable-background:new 0 0 661.9 653;" xml:space="preserve">
<g>
	<path fill="#c34341" d="M281.205 59.58c1.305-.225 2.61-.315 3.87-.315 1.35 0 2.655.09 3.915.315L153.45 1.035c-4.185-1.8-9-1.215-12.645 1.53L6.255 104.94c.81-.225 274.95-45.36 274.95-45.36zm-7.83 139.5c9.135 0 17.55 3.33 24.3 8.91V83.025c0-6.03-4.14-10.89-9.585-12.24-.99-.27-1.98-.36-2.97-.36-.675 0-1.35.09-2.07.18L15.12 114.66l-4.59.765C4.455 116.415 0 121.68 0 127.845v77.715c5.085-4.095 11.43-6.525 18.27-6.525 16.83 0 30.51 14.67 30.51 32.76s-13.635 32.76-30.51 32.76c-6.84 0-13.14-2.43-18.27-6.525v23.085c0 7.065 5.76 12.6 12.555 12.6.675 0 1.35-.09 2.07-.18l221.76-36.45c-1.71-4.77-2.655-9.99-2.655-15.39-0-23.535 17.73-42.615 39.645-42.615zM147.33 216.585c-13.59 0-24.57-11.79-24.57-26.37s10.98-26.37 24.57-26.37 24.57 11.79 24.57 26.37c-.045 14.535-11.025 26.37-24.57 26.37zm78.75-60.66c-4.23 0-8.235-1.17-11.745-3.195-7.65-4.455-12.825-13.185-12.825-23.175 0-14.58 10.98-26.37 24.57-26.37 9.225 0 17.19 5.445 21.42 13.5 1.98 3.825 3.15 8.19 3.15 12.87 0 14.58-10.98 26.37-24.57 26.37z"/>
</g>
</svg>
