<?xml version="1.0" encoding="utf-8"?>
<!-- Generator: Adobe Illustrator 19.1.0, SVG Export Plug-In . SVG Version: 6.00 Build 0)  -->
<svg version="1.1" id="Layer_1" xmlns="http://www.w3.org/2000/svg" xmlns:xlink="http://www.w3.org/1999/xlink" x="0px" y="0px"
	 viewBox="0 -50 250 250" style="enable-background:new 0 0 17.2 10.5;" xml:space="preserve">
<path fill="#c34341" class="st0" d="M106.5 52.5c-6 9-9 21-12 31.5C85.5 67.5 72 52.5 60 46.5c9 18 22.5 39 33 52.5 0 1.5 0 4.5 0 6v1.5s0 1.5 0 1.5v1.5V111v1.5V117c0 6 0 10.5 0 16.5-16.5-15-45-28.5-64.5-28.5 21 13.5 49.5 28.5 64.5 34.5 0 4.5 1.5 7.5 1.5 12-58.5 24-66-24-94.5-60 18-6 34.5-9 48-9-4.5-18-3-40.5-6-61.5 33 4.5 54 16.5 64.5 31.5ZM258 0c-28.5 79.5-7.5 171-147 150C97.5 61.5 129-1.5 258 0ZM219 39c-39 10.5-87 61.5-97.5 100.5 18-12 64.5-60 97.5-100.5Z"/>
</svg>
