<?xml version="1.0" encoding="utf-8"?>
<svg version="1.1" xmlns="http://www.w3.org/2000/svg" xmlns:xlink="http://www.w3.org/1999/xlink" x="0px" y="0px"
	 viewBox="0 -50 300 300">
<g>
	<path fill="#c34341" d="m295.152 49.53-31.98-33.384 13.884-8.892.78-6.942L271.44 0l-16.77 12.012H233.766l-12.792-7.8-4.602.936.078 5.07 8.268 9.126-1.092 4.758L126.672 34.632 26.13 31.824l-10.842 4.524-7.956 10.14L3.198 70.2l-.702 17.082L0 103.194l.702 15.834 2.808.546 4.056-4.446 3.276-14.898-2.652-20.67.936-.156 6.318 31.434-4.29 27.222 3.9 54.444.39 6.006 3.822 3.276H36.114l5.46-1.638-15.132-24.57 7.488-31.2h3.9l13.728 41.496 7.098 10.686 3.51 2.106h18.642l2.418-2.964-16.146-9.906L56.16 152.1l2.73-5.46 6.396.624 4.056 9.906 5.85-9.594 5.694 9.672 4.758-10.53 14.118-10.842L149.76 131.04l8.424 10.296 7.098 50.232 3.744 7.254h17.082l1.872-2.73-10.374-14.43-1.248-27.456 5.616 3.12 5.928 18.252 7.488 23.712 3.354 2.574h15.288l1.248-3.432-4.446-4.134L196.326 166.14l3.354-29.484 16.146-11.934 23.478-43.68 27.066-12.48 24.882-2.808 2.106-2.34 3.51-9.828-1.716-4.056z"/>
</g>
</svg>
